
      <svg data-logo="logo" xmlns="http://www.w3.org/2000/svg" viewBox="0 0 271 42">
        <g id="logogram" transform="translate(0, 1) rotate(0) "><path d="M28.7089 33.1053L1.9434 14.6424C-0.768963 12.7715 0.15306 8.87601 3.53531 7.95996L31.9823 0.239132C32.5849 0.0216955 33.2306 -0.0488885 33.866 0.0332432C34.5013 0.115375 35.1079 0.34785 35.6355 0.711378C36.1629 1.07491 36.5961 1.559 36.899 2.12348C37.2018 2.68795 37.3658 3.31654 37.3771 3.95706L35.6912 30.1393C35.4913 33.247 31.4213 34.9762 28.7089 33.1053Z" fill="#E9327C"/><path d="M20.2197 37.6632L4.45132 6.82618C4.09087 6.12072 3.93226 5.32941 3.99297 4.53953C4.05367 3.74965 4.33135 2.99187 4.79536 2.34978C5.25939 1.70769 5.89172 1.20622 6.62264 0.900668C7.35356 0.595117 8.15466 0.497365 8.93761 0.618198L38.1604 5.12834C38.8331 5.23219 39.4717 5.49425 40.0236 5.89298C40.5753 6.29172 41.0245 6.81572 41.3344 7.42191C41.6441 8.0281 41.8057 8.69917 41.8055 9.37994C41.8054 10.0607 41.6437 10.7317 41.3338 11.3378L27.8719 37.6647C27.5104 38.3681 26.962 38.9583 26.2869 39.3703C25.6118 39.7823 24.8363 40.0002 24.0454 40C23.2545 39.9999 22.479 39.7817 21.804 39.3695C21.1291 38.9571 20.5809 38.3668 20.2197 37.6632Z" fill="#1DACE3"/><path d="M37.3055 4.9955L22.7382 2.74713L4.85269 7.60342L11.9917 21.5695L28.7089 33.1053C29.0777 33.357 29.4834 33.5497 29.9114 33.6767L36.2612 21.2592L37.3055 4.9955Z" fill="#001A49"/></g>
        <g id="logotype" transform="translate(48, 1.5)"><path fill="#000000" d="M25.04 32L8.17 32L8.17 7.01L25.04 7.01Q27.84 7.01 30.26 7.83Q32.67 8.65 34.49 10.26Q36.31 11.87 37.34 14.20Q38.38 16.53 38.38 19.50L38.38 19.50Q38.38 21.92 37.71 23.88Q37.05 25.84 35.84 27.34Q34.63 28.85 32.95 29.88Q31.27 30.91 29.28 31.46Q27.28 32 25.04 32L25.04 32ZM14.86 12.08L14.86 26.93L24.13 26.93Q25.22 26.93 26.28 26.64Q27.35 26.36 28.28 25.80Q29.21 25.24 29.92 24.37Q30.64 23.49 31.04 22.29Q31.45 21.08 31.45 19.50L31.45 19.50Q31.45 17.54 30.83 16.13Q30.22 14.71 29.15 13.82Q28.09 12.92 26.79 12.50Q25.50 12.08 24.13 12.08L24.13 12.08L14.86 12.08ZM47.34 32L40.93 32L40.93 14.01L47.34 14.01L47.34 20.73L46.81 20.59Q47.37 18.17 48.30 16.72Q49.23 15.27 50.66 14.64Q52.09 14.01 54.16 14.01L54.16 14.01L55.84 14.01L55.84 19.47L53.36 19.47Q51.57 19.47 50.20 20.27Q48.84 21.08 48.09 22.53Q47.34 23.98 47.34 25.84L47.34 25.84L47.34 32ZM64.59 32.49L64.59 32.49Q61.09 32.49 59.11 31.05Q57.13 29.62 57.13 27.10L57.13 27.10Q57.13 25.49 57.97 24.34Q58.81 23.18 60.49 22.45Q62.17 21.71 64.73 21.50L64.73 21.50L71.38 20.80Q72.19 20.73 72.59 20.40Q72.99 20.06 72.99 19.54L72.99 19.54L72.99 19.50Q72.99 18.88 72.47 18.44Q71.94 18 71.01 17.77Q70.08 17.54 68.79 17.54L68.79 17.54Q66.83 17.54 65.71 17.98Q64.59 18.42 64.34 19.29L64.34 19.29L57.97 19.29Q58.32 17.41 59.69 16.13Q61.05 14.85 63.38 14.18Q65.71 13.52 68.93 13.52L68.93 13.52Q72.47 13.52 74.78 14.27Q77.09 15.02 78.24 16.56Q79.39 18.10 79.39 20.45L79.39 20.45L79.39 32L73.31 32L73.31 26.75L73.97 27.55Q73.16 29.20 71.87 30.29Q70.58 31.37 68.77 31.93Q66.97 32.49 64.59 32.49ZM66.90 28.29L66.90 28.29Q68.19 28.29 69.30 27.96Q70.40 27.63 71.24 27.05Q72.08 26.47 72.53 25.70Q72.99 24.93 72.99 24.05L72.99 24.05L72.99 21.71L74.00 23.18Q73.48 23.49 72.61 23.74Q71.73 23.98 70.33 24.16L70.33 24.16L65.78 24.72Q64.73 24.86 64.22 25.26Q63.71 25.66 63.71 26.40L63.71 26.40Q63.71 27.27 64.54 27.78Q65.36 28.29 66.90 28.29ZM93.53 32L87.23 32L80.52 14.01L87.27 14.01L91.58 27.70L90.21 27.66L95.01 14.01L101.97 14.01L106.73 27.59L105.40 27.66L109.71 14.01L115.38 14.01L108.83 32L102.81 32L96.79 14.81L99.52 14.81L93.53 32ZM131.34 32.49L131.34 32.49Q127.91 32.49 125.28 31.93Q122.66 31.37 120.82 30.32Q118.98 29.27 118.02 27.78Q117.06 26.29 116.95 24.48L116.95 24.48L123.85 24.48Q124.06 25.21 124.65 25.82Q125.25 26.43 126.17 26.87Q127.10 27.31 128.40 27.55Q129.69 27.80 131.34 27.80L131.34 27.80Q133.47 27.80 134.99 27.43Q136.52 27.06 137.36 26.36Q138.20 25.66 138.20 24.72L138.20 24.72Q138.20 24.13 137.92 23.70Q137.64 23.28 137.06 23.00Q136.48 22.73 135.57 22.62L135.57 22.62L126.89 21.53Q124.62 21.25 122.83 20.70Q121.05 20.13 119.86 19.26Q118.67 18.38 118.04 17.13Q117.41 15.86 117.41 14.22L117.41 14.22Q117.41 12.43 118.32 11.00Q119.23 9.56 120.98 8.57Q122.73 7.57 125.19 7.04Q127.66 6.52 130.81 6.52L130.81 6.52Q133.96 6.52 136.36 7.03Q138.76 7.53 140.42 8.50Q142.08 9.46 142.97 10.81Q143.87 12.15 143.97 13.80L143.97 13.80L137.04 13.80Q136.90 12.99 136.15 12.42Q135.40 11.84 134.03 11.52Q132.67 11.21 130.64 11.21L130.64 11.21Q128.64 11.21 127.21 11.52Q125.77 11.84 125.05 12.43Q124.34 13.03 124.34 13.87L124.34 13.87Q124.34 14.46 124.70 14.94Q125.07 15.41 125.74 15.71Q126.40 16.00 127.31 16.14L127.31 16.14L136.31 17.23Q139.18 17.58 141.14 18.49Q143.10 19.40 144.13 20.87Q145.16 22.34 145.16 24.44L145.16 24.44Q145.16 26.43 144.27 27.92Q143.38 29.41 141.61 30.44Q139.84 31.48 137.27 31.98Q134.70 32.49 131.34 32.49ZM154.26 32L147.86 32L147.86 7.01L154.26 7.01L154.26 19.05L153.63 18.07Q154.44 16.67 155.61 15.64Q156.78 14.60 158.43 14.06Q160.07 13.52 162.21 13.52L162.21 13.52Q164.83 13.52 166.63 14.53Q168.44 15.55 169.38 17.46Q170.33 19.36 170.33 22.06L170.33 22.06L170.33 32L163.92 32L163.92 23.39Q163.92 21.01 162.87 19.64Q161.82 18.28 159.41 18.28L159.41 18.28Q157.83 18.28 156.68 18.93Q155.52 19.57 154.89 20.75Q154.26 21.92 154.26 23.49L154.26 23.49L154.26 32ZM180.16 32.49L180.16 32.49Q176.66 32.49 174.68 31.05Q172.71 29.62 172.71 27.10L172.71 27.10Q172.71 25.49 173.55 24.34Q174.39 23.18 176.07 22.45Q177.75 21.71 180.30 21.50L180.30 21.50L186.95 20.80Q187.76 20.73 188.16 20.40Q188.56 20.06 188.56 19.54L188.56 19.54L188.56 19.50Q188.56 18.88 188.04 18.44Q187.51 18 186.58 17.77Q185.66 17.54 184.36 17.54L184.36 17.54Q182.40 17.54 181.28 17.98Q180.16 18.42 179.92 19.29L179.92 19.29L173.55 19.29Q173.90 17.41 175.26 16.13Q176.63 14.85 178.95 14.18Q181.28 13.52 184.50 13.52L184.50 13.52Q188.04 13.52 190.35 14.27Q192.66 15.02 193.81 16.56Q194.97 18.10 194.97 20.45L194.97 20.45L194.97 32L188.88 32L188.88 26.75L189.54 27.55Q188.74 29.20 187.44 30.29Q186.15 31.37 184.34 31.93Q182.54 32.49 180.16 32.49ZM182.47 28.29L182.47 28.29Q183.77 28.29 184.87 27.96Q185.97 27.63 186.81 27.05Q187.65 26.47 188.11 25.70Q188.56 24.93 188.56 24.05L188.56 24.05L188.56 21.71L189.58 23.18Q189.05 23.49 188.18 23.74Q187.30 23.98 185.90 24.16L185.90 24.16L181.35 24.72Q180.30 24.86 179.79 25.26Q179.29 25.66 179.29 26.40L179.29 26.40Q179.29 27.27 180.11 27.78Q180.93 28.29 182.47 28.29ZM202.77 38.65L198.40 38.65L198.40 34.48L202.21 34.48Q203.19 34.48 203.84 34.12Q204.49 33.75 205.05 32.84L205.05 32.84L206.66 30.18L207.53 34.70L195.56 14.01L202.88 14.01L210.58 28.39L207.92 28.39L215.20 14.01L221.71 14.01L210.93 33.65Q209.53 36.27 207.64 37.46Q205.75 38.65 202.77 38.65L202.77 38.65Z"/></g>
        
      </svg>
    