
      <svg data-logo="logo" xmlns="http://www.w3.org/2000/svg" viewBox="0 0 218 44">
        <g id="logogram" transform="translate(0, 2) rotate(0) "><path d="M29.2236 33.1053L2.45805 14.6424C-0.254315 12.7715 0.667709 8.87601 4.04995 7.95996L32.4969 0.239132C33.0995 0.0216955 33.7452 -0.0488885 34.3806 0.0332432C35.0159 0.115375 35.6225 0.34785 36.1501 0.711378C36.6775 1.07491 37.1108 1.559 37.4136 2.12348C37.7165 2.68795 37.8805 3.31654 37.8918 3.95706L36.2059 30.1393C36.006 33.247 31.9359 34.9762 29.2236 33.1053Z" fill="#E9327C"/><path d="M20.7344 37.6632L4.966 6.82618C4.60555 6.12072 4.44694 5.32941 4.50764 4.53953C4.56835 3.74965 4.84603 2.99187 5.31004 2.34978C5.77407 1.70769 6.4064 1.20622 7.13732 0.900668C7.86824 0.595117 8.66934 0.497365 9.45229 0.618198L38.6751 5.12834C39.3478 5.23219 39.9864 5.49425 40.5382 5.89298C41.09 6.29172 41.5392 6.81572 41.8491 7.42191C42.1588 8.0281 42.3204 8.69917 42.3202 9.37994C42.3201 10.0607 42.1583 10.7317 41.8485 11.3378L28.3866 37.6647C28.0251 38.3681 27.4767 38.9583 26.8016 39.3703C26.1265 39.7823 25.351 40.0002 24.5601 40C23.7692 39.9999 22.9937 39.7817 22.3187 39.3695C21.6438 38.9571 21.0956 38.3668 20.7344 37.6632Z" fill="#1DACE3"/><path d="M37.8201 4.9955L23.2528 2.74713L5.36731 7.60342L12.5063 21.5695L29.2235 33.1053C29.5924 33.357 29.998 33.5497 30.4261 33.6767L36.7758 21.2592L37.8201 4.9955Z" fill="#001A49"/></g>
        <g id="logotype" transform="translate(49, 1)"><path fill="#ffffff" d="M16.26 34L8.24 34L8.24 9.50L16.26 9.50Q19.58 9.50 22.07 10.86Q24.55 12.23 25.93 14.92Q27.32 17.62 27.32 21.64L27.32 21.64Q27.32 25.67 25.93 28.43Q24.55 31.20 22.07 32.60Q19.58 34 16.26 34L16.26 34ZM13.32 13.52L13.32 29.94L15.84 29.94Q18.84 29.94 20.54 27.95Q22.24 25.95 22.24 21.68L22.24 21.68Q22.24 17.38 20.54 15.45Q18.84 13.52 15.84 13.52L15.84 13.52L13.32 13.52ZM35.26 34L30.54 34L30.54 14.40L35.26 14.40L35.26 34ZM35.26 24.23L35.26 24.23L35.12 18.74Q35.40 16.46 36.48 15.38Q37.57 14.29 39.74 14.29L39.74 14.29L41.49 14.29L41.49 18.88L39.36 18.88Q37.12 18.88 36.19 20.07Q35.26 21.26 35.26 24.23ZM59.20 34L54.44 34L54.44 20.77Q54.44 19.23 53.57 18.55Q52.69 17.86 51.33 17.86L51.33 17.86Q49.75 17.86 48.46 18.67Q47.16 19.47 46.53 20.52L46.53 20.52L43.52 17.44Q44.99 15.59 47.20 14.73Q49.40 13.87 51.64 13.87L51.64 13.87Q54.09 13.87 55.77 14.61Q57.45 15.34 58.33 16.90Q59.20 18.46 59.20 20.95L59.20 20.95L59.20 34ZM49.16 34.38L49.16 34.38Q46.32 34.38 44.78 32.81Q43.24 31.23 43.24 28.68L43.24 28.68Q43.24 26.02 45.01 24.46Q46.78 22.91 50.35 22.24L50.35 22.24L54.90 21.40L54.90 24.83L50.98 25.60Q49.47 25.91 48.75 26.60Q48.04 27.28 48.04 28.36L48.04 28.36Q48.04 29.63 48.81 30.17Q49.58 30.71 50.66 30.71L50.66 30.71Q52.45 30.71 53.44 29.36Q54.44 28.02 54.44 25.53L54.44 25.53L54.58 28.57Q54.69 31.30 53.27 32.84Q51.85 34.38 49.16 34.38ZM71.77 34L66.03 34L62.14 14.40L66.76 14.40L69.56 30.75L68.51 30.75L72.50 14.40L77.19 14.40L81.08 30.75L80.06 30.75L82.83 14.40L87.45 14.40L83.53 34L77.75 34L73.94 17.79L75.76 17.79L71.77 34ZM98.96 34.52L98.96 34.52Q96.30 34.52 94.25 33.74Q92.21 32.95 90.96 31.30Q89.72 29.66 89.41 27.17L89.41 27.17L94.45 26.09Q94.52 27.35 94.90 28.21Q95.29 29.06 95.90 29.59Q96.51 30.11 97.28 30.34Q98.05 30.57 98.89 30.57L98.89 30.57Q99.80 30.57 100.59 30.24Q101.38 29.91 101.88 29.24Q102.39 28.57 102.36 27.52L102.36 27.52Q102.32 25.98 101.06 25.07Q99.80 24.16 97.07 23.60L97.07 23.60Q94.66 23.04 93.13 21.99Q91.61 20.95 90.89 19.47Q90.18 18.00 90.18 16.18L90.18 16.18Q90.18 13.98 91.21 12.37Q92.24 10.76 94.13 9.87Q96.02 8.97 98.51 8.97L98.51 8.97Q100.12 8.97 101.55 9.32Q102.99 9.67 104.14 10.44Q105.30 11.21 106.07 12.42Q106.84 13.63 107.08 15.38L107.08 15.38L102.18 16.67Q102.11 15.31 101.59 14.49Q101.06 13.66 100.26 13.30Q99.45 12.93 98.44 12.93L98.44 12.93Q97.56 12.93 96.83 13.23Q96.09 13.52 95.67 14.10Q95.25 14.68 95.25 15.48L95.25 15.48Q95.25 16.29 95.58 16.97Q95.92 17.65 96.86 18.16Q97.81 18.67 99.56 19.09L99.56 19.09Q102.18 19.68 103.90 20.73Q105.61 21.78 106.43 23.29Q107.26 24.80 107.26 26.75L107.26 26.75Q107.29 28.68 106.64 30.13Q106.00 31.59 104.86 32.56Q103.72 33.55 102.20 34.03Q100.68 34.52 98.96 34.52ZM127.59 34L122.87 34L122.87 22.34Q122.87 18.00 119.16 18.00L119.16 18.00Q117.23 18.00 116.16 19.27Q115.10 20.52 115.10 22.91L115.10 22.91L114.92 19.02Q115.06 16.64 116.72 15.31Q118.39 13.98 120.94 13.98L120.94 13.98Q124.37 13.98 125.98 15.97Q127.59 17.97 127.59 21.43L127.59 21.43L127.59 34ZM115.10 34L110.37 34L110.37 7.40L115.10 7.40L115.10 34ZM146.59 34L141.84 34L141.84 20.77Q141.84 19.23 140.96 18.55Q140.09 17.86 138.72 17.86L138.72 17.86Q137.15 17.86 135.85 18.67Q134.56 19.47 133.93 20.52L133.93 20.52L130.92 17.44Q132.39 15.59 134.59 14.73Q136.80 13.87 139.03 13.87L139.03 13.87Q141.49 13.87 143.17 14.61Q144.84 15.34 145.72 16.90Q146.59 18.46 146.59 20.95L146.59 20.95L146.59 34ZM136.55 34.38L136.55 34.38Q133.72 34.38 132.18 32.81Q130.64 31.23 130.64 28.68L130.64 28.68Q130.64 26.02 132.40 24.46Q134.17 22.91 137.74 22.24L137.74 22.24L142.29 21.40L142.29 24.83L138.37 25.60Q136.87 25.91 136.15 26.60Q135.43 27.28 135.43 28.36L135.43 28.36Q135.43 29.63 136.20 30.17Q136.97 30.71 138.06 30.71L138.06 30.71Q139.84 30.71 140.84 29.36Q141.84 28.02 141.84 25.53L141.84 25.53L141.98 28.57Q142.08 31.30 140.66 32.84Q139.25 34.38 136.55 34.38ZM153.77 41.52L150.16 41.52L150.16 37.53L153.56 37.53Q154.68 37.53 155.31 37.03Q155.94 36.52 156.29 35.44L156.29 35.44L163.19 14.40L168.19 14.40L160.07 37.33Q159.51 38.94 158.78 39.84Q158.04 40.76 156.87 41.14Q155.69 41.52 153.77 41.52L153.77 41.52ZM160.38 35.30L156.96 35.30L149.53 14.40L154.50 14.40L160.38 32.25L160.38 35.30Z"/></g>
        
      </svg>
    